<svg width="24" height="24" viewBox="0 0 24 24" fill="none" xmlns="http://www.w3.org/2000/svg">
  <path fill-rule="evenodd" clip-rule="evenodd" d="M1 4C1 2.89543 1.89543 2 3 2H21C22.1046 2 23 2.89543 23 4V20C23 21.1046 22.1046 22 21 22H3C1.89543 22 1 21.1046 1 20V4ZM9 4L3 4V20H9V4ZM11 4V20H21V4L11 4ZM4 7C4 6.44772 4.44772 6 5 6H7C7.55228 6 8 6.44772 8 7C8 7.55228 7.55228 8 7 8H5C4.44772 8 4 7.55228 4 7ZM5 10C4.44772 10 4 10.4477 4 11C4 11.5523 4.44772 12 5 12H7C7.55228 12 8 11.5523 8 11C8 10.4477 7.55228 10 7 10H5ZM4 15C4 14.4477 4.44772 14 5 14H7C7.55228 14 8 14.4477 8 15C8 15.5523 7.55228 16 7 16H5C4.44772 16 4 15.5523 4 15Z" fill="currentColor"/>
</svg>
